<?xml version="1.0" encoding="UTF-8" standalone="no"?>
<svg
   xmlns:dc="http://purl.org/dc/elements/1.1/"
   xmlns:cc="http://creativecommons.org/ns#"
   xmlns:rdf="http://www.w3.org/1999/02/22-rdf-syntax-ns#"
   xmlns:svg="http://www.w3.org/2000/svg"
   xmlns="http://www.w3.org/2000/svg"
   viewBox="149.179995 149.179995 460 460"
   height="758.35999"
   width="758.35999"
   xml:space="preserve"
   id="svg10"
   version="1.1"><metadata
     id="metadata16"><rdf:RDF><cc:Work
         rdf:about=""><dc:format>image/svg+xml</dc:format><dc:type
           rdf:resource="http://purl.org/dc/dcmitype/StillImage" /><dc:title></dc:title></cc:Work></rdf:RDF></metadata><defs
     id="defs14" /><g
     transform="matrix(1.3333333,0,0,-1.3333333,0,758.36)"
     id="g18"><g
       transform="scale(0.1)"
       id="g20"><path
         id="path22"
         style="fill:#ffffff;fill-opacity:1;fill-rule:nonzero;stroke:none"
         d="m 3580.34,3280.71 c 0.25,0.36 0.48,0.71 0.7,1.1 14.21,22.01 22.58,48.2 22.58,76.4 0,28.21 -8.37,54.4 -22.58,76.45 -0.22,0.35 -0.45,0.71 -0.7,1.1 -0.96,1.42 -2,2.85 -2.98,4.27 -6.87,9.93 -14.98,19.22 -24.58,27.45 l -718.26,612.3 c -59.27,50.57 -148.36,43.5 -198.86,-15.82 -50.57,-59.29 -43.5,-148.33 15.8,-198.87 l 429.05,-365.76 H 2027.8 c -77.91,0 -141.07,-63.18 -141.07,-141.12 0,-77.88 63.16,-141.07 141.07,-141.07 h 1052.71 l -429.05,-365.76 c -59.3,-50.58 -66.37,-139.59 -15.8,-198.9 27.89,-32.74 67.51,-49.56 107.38,-49.56 32.38,0 64.94,11.06 91.48,33.71 l 718.26,612.35 c 9.6,8.2 17.71,17.5 24.58,27.46 0.98,1.39 2.02,2.79 2.98,4.27 z m 587.64,-639.91 -191.62,-90.64 v -574.59 c 0,-96.05 -77.85,-173.94 -173.97,-173.94 h -397.6 v -640.51 l -1514.6,330.44 h -4.22 v 724.49 c -295.98,239.04 -485.44,604.72 -485.44,1014.8 0,720.21 583.84,1304.07 1304.07,1304.07 712.47,0 1291.06,-571.49 1303.45,-1280.98 l 215.94,-456.83 c 27.58,-58.36 2.41,-128.76 -56.01,-156.31" /><path
         id="path24"
         style="fill:none;stroke:#000000;stroke-width:3;stroke-linecap:butt;stroke-linejoin:miter;stroke-miterlimit:4;stroke-dasharray:none;stroke-opacity:1"
         d="M 5686.21,1.5 H 1.5 v 5684.71 h 5684.71 z" /></g></g></svg>
