<?xml version="1.0" encoding="UTF-8" standalone="no"?>
<svg
   xmlns:dc="http://purl.org/dc/elements/1.1/"
   xmlns:cc="http://creativecommons.org/ns#"
   xmlns:rdf="http://www.w3.org/1999/02/22-rdf-syntax-ns#"
   xmlns:svg="http://www.w3.org/2000/svg"
   xmlns="http://www.w3.org/2000/svg"
   viewBox="0 0 461.60001 74.919998"
   height="74.919998"
   width="461.60001"
   xml:space="preserve"
   id="svg365"
   version="1.1"><metadata
     id="metadata371"><rdf:RDF><cc:Work
         rdf:about=""><dc:format>image/svg+xml</dc:format><dc:type
           rdf:resource="http://purl.org/dc/dcmitype/StillImage" /><dc:title></dc:title></cc:Work></rdf:RDF></metadata><defs
     id="defs369" /><g
     transform="matrix(1.3333333,0,0,-1.3333333,0,74.92)"
     id="g373"><g
       transform="scale(0.1)"
       id="g375"><path
         id="path377"
         style="fill:#ffffff;fill-opacity:1;fill-rule:nonzero;stroke:none"
         d="m 824.449,118.301 c 0,-6.309 -1.933,-9.219 -7.765,-9.219 h -25.243 c -5.82,0 -8.253,2.91 -8.253,9.219 v 136.894 c 0,33.977 -8.731,59.2 -47.079,59.2 -22.324,0 -50.468,-12.61 -67.472,-28.125 V 118.301 c 0,-6.309 -2.422,-9.219 -8.25,-9.219 h -25.235 c -5.343,0 -7.773,2.91 -7.773,8.75 v 322.793 c 0,6.777 3.398,9.211 9.226,10.176 18.45,2.441 23.301,3.398 24.758,3.398 4.375,0 7.274,-1.933 7.274,-8.242 V 320.234 c 21.359,18.926 52.422,28.633 79.609,28.633 55.813,0 76.203,-33.965 76.203,-86.894 V 118.301" /><path
         id="path379"
         style="fill:#ffffff;fill-opacity:1;fill-rule:nonzero;stroke:none"
         d="m 1036.44,248.398 v 6.797 c 0,33.008 -17.97,61.641 -54.854,61.641 -40.281,0 -63.094,-32.527 -66.981,-68.438 z m 40.77,-14.55 c 0,-11.172 -1.94,-13.614 -14.56,-13.614 H 913.629 c 1.465,-46.113 27.676,-82.011 76.699,-82.011 19.902,0 41.732,3.867 58.242,10.175 4.37,1.465 9.23,2.442 10.68,-3.398 l 5.33,-17.949 c 1.47,-4.375 -0.96,-6.309 -5.33,-8.75 -20.88,-9.707 -51.93,-14.063 -74.266,-14.063 -74.754,0 -114.55,49.024 -114.55,122.305 0,69.434 43.195,122.324 113.097,122.324 27.669,0 49.989,-10.183 66.019,-26.699 19.41,-19.883 27.66,-48.535 27.66,-80.078 v -8.242" /><path
         id="path381"
         style="fill:#ffffff;fill-opacity:1;fill-rule:nonzero;stroke:none"
         d="m 1278.2,280.918 c -11.66,21.836 -35.43,34.941 -58.74,34.941 -37.38,0 -65.52,-33 -65.52,-90.761 0,-53.379 24.75,-86.407 59.7,-86.407 31.06,0 55.82,24.747 64.56,49.043 z m 62.13,-165.527 c 0,-4.844 -2.43,-6.309 -7.29,-6.309 h -20.39 c -21.35,0 -31.54,16.523 -31.54,35.918 h -0.98 c -11.15,-21.367 -43.19,-40.762 -72.8,-40.762 -66.98,0 -96.59,56.797 -96.59,117.93 0,81.074 48.05,126.699 103.38,126.699 24.27,0 50.48,-10.183 65.04,-29.597 l 0.49,16.011 c 0,5.813 3.89,8.254 9.23,8.254 h 21.84 c 5.82,0 8.74,-2.91 8.74,-9.219 V 164.414 c 0,-11.152 0.48,-18.926 2.42,-21.836 1.94,-3.398 4.36,-4.355 8.25,-4.355 h 3.4 c 4.37,0 6.8,-0.977 6.8,-6.309 v -16.523" /><path
         id="path383"
         style="fill:#ffffff;fill-opacity:1;fill-rule:nonzero;stroke:none"
         d="m 1542.77,282.363 c -10.2,18.457 -33.5,33.996 -57.28,33.996 -43.68,0 -68.92,-35.929 -68.92,-89.328 0,-51.445 22.81,-89.785 65.05,-89.785 22.81,0 49.02,14.551 61.15,32.031 z m 41.25,-163.086 c 0,-6.308 -2.9,-10.195 -7.27,-10.195 h -20.88 c -7.27,0 -10.19,2.91 -10.19,9.219 l -0.48,17.48 c -15.54,-18.457 -43.69,-31.543 -71.36,-31.543 -69.88,0 -99.98,57.266 -99.98,120.86 0,71.347 41.74,124.257 105.8,124.257 22.33,0 49.04,-10.195 63.11,-27.187 v 118.457 c 0,6.309 1.46,9.211 7.77,10.176 24.75,3.398 25.24,3.398 26.21,3.398 4.85,0 7.27,-2.422 7.27,-8.242 v -326.68" /><path
         id="path385"
         style="fill:#ffffff;fill-opacity:1;fill-rule:nonzero;stroke:none"
         d="m 1783.55,450.801 c 6.82,-2.434 6.82,-6.797 5.35,-12.141 l -3.4,-15.047 c -0.96,-3.379 -2.43,-4.843 -4.85,-4.843 -1.47,0 -2.92,0.468 -4.37,0.964 -7.77,2.903 -20.88,6.313 -32.03,6.313 -33.02,0 -42.23,-21.848 -42.23,-59.699 v -22.813 h 59.69 c 4.87,0 7.29,-0.976 7.29,-5.82 v -16.516 c 0,-4.84 -1.94,-6.804 -6.8,-6.804 h -60.18 V 119.766 c 0,-6.797 -2.44,-10.684 -9.23,-10.684 h -22.81 c -6.31,0 -9.22,3.398 -9.22,10.195 v 195.118 h -28.64 c -5.35,0 -6.31,0.976 -6.31,7.304 v 15.02 c 0,4.875 1.94,6.816 6.79,6.816 h 28.16 v 9.231 c 0,17.461 0.97,30.066 1.93,38.816 5.83,42.234 31.56,67.461 76.7,67.461 14.57,0 32.03,-3.398 44.16,-8.242" /><path
         id="path387"
         style="fill:#ffffff;fill-opacity:1;fill-rule:nonzero;stroke:none"
         d="m 1895.13,316.836 c -52.41,0 -68.44,-46.113 -68.44,-88.828 0,-44.649 15.06,-91.738 66.51,-91.738 50.97,0 68.92,44.648 68.92,89.804 0,45.137 -16.5,90.762 -66.99,90.762 z m -2.42,-212.598 c -75.23,0 -108.72,53.399 -108.72,122.793 0,68.449 39.31,121.836 111.63,121.836 75.24,0 109.22,-51.933 109.22,-122.324 0,-68.438 -39.81,-122.305 -112.13,-122.305" /><path
         id="path389"
         style="fill:#ffffff;fill-opacity:1;fill-rule:nonzero;stroke:none"
         d="m 2086.42,334.785 0.49,-16.484 c 11.63,16.015 30.1,30.566 55.82,30.566 3.38,0 9.22,-0.469 14.06,-1.445 4.37,-0.984 4.37,-4.863 3.88,-8.262 l -3.39,-21.836 c -0.49,-3.398 -2.43,-4.863 -5.33,-4.863 -3.9,0 -6.81,1.465 -15.53,1.465 -17,0 -35.93,-11.172 -48.54,-29.121 V 119.277 c 0,-6.308 -2.9,-10.195 -9.22,-10.195 h -22.82 c -6.3,0 -9.22,3.398 -9.22,10.195 v 214.539 c 0,7.278 3.39,9.719 9.22,9.719 h 20.87 c 6.31,0 9.71,-2.441 9.71,-8.75" /><path
         id="path391"
         style="fill:#ffffff;fill-opacity:1;fill-rule:nonzero;stroke:none"
         d="m 2497.57,343.535 c 5.33,0 6.81,-5.351 5.33,-9.719 l -65.02,-215.984 c -1.94,-5.84 -5.85,-8.75 -11.66,-8.75 h -24.74 c -6.81,0 -10.23,2.91 -11.67,8.75 l -46.59,162.109 h -0.49 l -45.65,-162.617 c -1.93,-6.308 -6.3,-8.242 -12.11,-8.242 h -24.28 c -6.31,0 -10.19,3.398 -11.63,8.75 l -64.56,215.984 c -1.47,4.868 -0.5,9.719 6.79,9.719 h 25.74 c 7.25,0 10.67,-2.441 11.62,-6.816 l 46.13,-177.149 h 0.95 l 50.5,176.68 c 1.45,5.344 4.83,7.285 9.69,7.285 h 19.91 c 4.38,0 7.3,-0.976 8.74,-5.82 l 51.46,-178.633 h 0.95 l 45.63,176.199 c 1.45,5.344 4.87,8.254 11.67,8.254 h 23.29" /><path
         id="path393"
         style="fill:#ffffff;fill-opacity:1;fill-rule:nonzero;stroke:none"
         d="m 2684.46,280.918 c -11.62,21.836 -35.41,34.941 -58.7,34.941 -37.4,0 -65.56,-33 -65.56,-90.761 0,-53.379 24.78,-86.407 59.74,-86.407 31.04,0 55.83,24.747 64.52,49.043 z m 62.14,-165.527 c 0,-4.844 -2.4,-6.309 -7.26,-6.309 h -20.41 c -21.36,0 -31.54,16.523 -31.54,35.918 h -0.95 c -11.17,-21.367 -43.2,-40.762 -72.8,-40.762 -67,0 -96.6,56.797 -96.6,117.93 0,81.074 48.02,126.699 103.36,126.699 24.28,0 50.5,-10.183 65.05,-29.597 l 0.49,16.011 c 0,5.813 3.88,8.254 9.2,8.254 h 21.85 c 5.86,0 8.74,-2.91 8.74,-9.219 V 164.414 c 0,-11.152 0.5,-18.926 2.43,-21.836 1.94,-3.398 4.37,-4.355 8.25,-4.355 h 3.42 c 4.37,0 6.77,-0.977 6.77,-6.309 v -16.523" /><path
         id="path395"
         style="fill:#ffffff;fill-opacity:1;fill-rule:nonzero;stroke:none"
         d="m 2827.07,334.785 0.49,-16.484 c 11.63,16.015 30.1,30.566 55.82,30.566 3.38,0 9.2,-0.469 14.07,-1.445 4.36,-0.984 4.36,-4.863 3.87,-8.262 l -3.39,-21.836 c -0.48,-3.398 -2.43,-4.863 -5.35,-4.863 -3.87,0 -6.76,1.465 -15.51,1.465 -16.98,0 -35.94,-11.172 -48.56,-29.121 V 119.277 c 0,-6.308 -2.88,-10.195 -9.19,-10.195 h -22.84 c -6.31,0 -9.2,3.398 -9.2,10.195 v 214.539 c 0,7.278 3.39,9.719 9.2,9.719 h 20.9 c 6.31,0 9.69,-2.441 9.69,-8.75" /><path
         id="path397"
         style="fill:#ffffff;fill-opacity:1;fill-rule:nonzero;stroke:none"
         d="m 3081.94,282.363 c -10.19,18.457 -33.52,33.996 -57.27,33.996 -43.7,0 -68.93,-35.929 -68.93,-89.328 0,-51.445 22.8,-89.785 65.02,-89.785 22.84,0 49.06,14.551 61.18,32.031 z m 41.27,-163.086 c 0,-6.308 -2.93,-10.195 -7.3,-10.195 h -20.87 c -7.29,0 -10.22,2.91 -10.22,9.219 l -0.45,17.48 c -15.55,-18.457 -43.7,-31.543 -71.37,-31.543 -69.88,0 -99.97,57.266 -99.97,120.86 0,71.347 41.72,124.257 105.79,124.257 22.35,0 49.02,-10.195 63.12,-27.187 v 118.457 c 0,6.309 1.44,9.211 7.75,10.176 24.78,3.398 25.23,3.398 26.22,3.398 4.87,0 7.3,-2.422 7.3,-8.242 v -326.68" /><path
         id="path399"
         style="fill:#ffffff;fill-opacity:1;fill-rule:nonzero;stroke:none"
         d="m 3242.15,104.238 c -24.78,0 -50.5,8.242 -66.5,15.528 -4.38,1.933 -5.86,5.332 -4.38,9.218 l 6.31,17.481 c 1.45,3.867 4.87,5.82 8.25,4.375 18.43,-7.774 41.27,-14.57 57.76,-14.57 28.16,0 47.08,13.593 47.08,36.406 0,18.926 -14.05,29.121 -36.4,37.851 l -32.53,12.637 c -28.61,11.152 -49.97,30.566 -49.97,61.145 0,42.722 38.8,64.558 81.51,64.558 20.9,0 41.27,-3.398 63.12,-13.586 2.93,-1.465 4.37,-2.898 4.37,-4.859 0,-0.969 -0.49,-2.414 -0.99,-3.879 l -5.32,-16.992 c -0.99,-3.399 -2.92,-4.863 -5.35,-4.863 -0.96,0 -2.4,0.5 -3.88,0.976 -12.62,5.828 -35.42,11.66 -50.96,11.66 -25.73,0 -39.78,-13.601 -39.78,-30.097 0,-16.504 9.68,-24.278 30.09,-32.989 l 37.85,-16.054 c 26.68,-11.153 48.52,-30.567 48.52,-61.621 0,-44.649 -37.35,-72.325 -88.8,-72.325" /><path
         id="path401"
         style="fill:#ffffff;fill-opacity:1;fill-rule:nonzero;stroke:none"
         d="m 3459.48,383.398 h -7.07 c -2.04,0 -3.05,1.25 -3.05,3.282 l -0.76,44.043 -17.98,-45.555 c -0.5,-1.523 -1.5,-1.77 -2.54,-1.77 h -4.29 c -1.27,0 -2.04,0.489 -2.78,2.012 l -19.75,45.586 -0.51,-45.058 c 0,-2.051 -1.01,-2.54 -2.79,-2.54 h -6.83 c -1.78,0 -2.28,1.004 -2.28,2.54 v 0.234 l 1.78,65.586 c 0,2.012 0.76,2.773 2.54,2.773 h 6.33 c 2.01,0 3.02,-0.761 3.54,-2.011 l 23.03,-52.676 21.77,52.676 c 0.5,1.503 1.02,2.011 2.8,2.011 h 6.57 c 1.78,0 2.54,-0.761 2.54,-2.539 l 2.27,-65.566 v -0.254 c 0,-1.77 -0.5,-2.774 -2.54,-2.774 z m -72.15,63.282 c -0.25,-2.024 -1.51,-2.266 -3.03,-2.266 h -17.48 v -58.242 c 0,-1.77 -0.74,-2.774 -2.78,-2.774 h -7.34 c -2.02,0 -2.78,1.004 -2.78,2.774 v 58.242 h -17.73 c -1.77,0 -2.51,0.488 -2.51,2.266 v 5.312 c 0,1.778 0.74,2.539 2.26,2.539 h 49.62 c 1.52,0 2.53,-0.246 2.53,-1.777 v -0.762 l -0.76,-5.312" /><path
         id="path403"
         style="fill:#ffffff;fill-opacity:1;fill-rule:nonzero;stroke:none"
         d="m 363.066,353.035 c 0.039,0.063 0.079,0.117 0.118,0.184 2.367,3.66 3.75,8.027 3.75,12.722 0,4.704 -1.383,9.059 -3.75,12.731 -0.039,0.058 -0.079,0.121 -0.118,0.187 -0.16,0.235 -0.336,0.477 -0.492,0.711 -1.148,1.657 -2.511,3.2 -4.109,4.571 L 238.832,486.125 c -9.871,8.426 -24.703,7.246 -33.113,-2.637 -8.43,-9.875 -7.246,-24.703 2.625,-33.121 l 71.457,-60.926 H 104.469 c -12.969,0 -23.4963,-10.519 -23.4963,-23.5 0,-12.972 10.5273,-23.496 23.4963,-23.496 h 175.332 l -71.457,-60.922 c -9.871,-8.421 -11.055,-23.246 -2.625,-33.125 4.64,-5.453 11.234,-8.257 17.89,-8.257 5.391,0 10.801,1.843 15.223,5.617 L 358.465,347.75 c 1.598,1.367 2.961,2.91 4.109,4.574 0.156,0.227 0.332,0.465 0.492,0.711 z m 97.872,-106.586 -31.907,-15.097 v -95.704 c 0,-15.996 -12.972,-28.972 -28.984,-28.972 H 333.824 V 0 L 81.5469,55.0273 H 80.8555 V 175.703 C 31.5508,215.52 0,276.426 0,344.727 c 0,119.961 97.2422,217.207 217.191,217.207 118.688,0 215.039,-95.192 217.11,-213.36 l 35.957,-76.09 c 4.601,-9.714 0.414,-21.445 -9.32,-26.035" /></g></g></svg>
