<?xml version="1.0" encoding="UTF-8"?>
<svg viewBox="0 -25 470 470" version="1.1" xmlns="http://www.w3.org/2000/svg" xmlns:xlink="http://www.w3.org/1999/xlink">
    <g id="Page-1" stroke="none" stroke-width="1" fill="none" fill-rule="evenodd">
        <g id="Flexible-Layouts" transform="translate(-22.000000, -6869.000000)" fill="#101225">
            <path d="M485.839341,7100.14683 C489.752192,7094.07066 492,7086.77081 492,7078.96462 C492,7071.11623 489.752192,7063.85858 485.839341,7057.74022 C485.797715,7057.65583 485.714463,7057.57144 485.672837,7057.44485 C485.381454,7057.06509 485.090072,7056.64313 484.840315,7056.26337 C482.967142,7053.52065 480.719334,7050.94672 478.096891,7048.62596 L281.455318,6878.74635 C265.262776,6864.69521 240.869896,6866.6784 227.05004,6883.1347 C213.188557,6899.59099 215.144983,6924.27544 231.379152,6938.32658 L348.806306,7039.80708 L60.6289965,7039.80708 C39.3164467,7039.80708 22,7057.36046 22,7078.96462 C22,7100.56878 39.3164467,7118.12217 60.6289965,7118.12217 L348.806306,7118.12217 L231.379152,7219.60266 C215.144983,7233.6538 213.188557,7258.33825 227.05004,7274.79454 C234.667611,7283.8666 245.532017,7288.55032 256.438048,7288.55032 C265.304402,7288.55032 274.212382,7285.47004 281.455318,7279.18289 L478.096891,7109.26108 C480.719334,7106.98252 482.967142,7104.40859 484.840315,7101.66587 C485.090072,7101.28611 485.381454,7100.86415 485.672837,7100.48439 C485.714463,7100.3578 485.797715,7100.27341 485.839341,7100.14683 Z" id="Fill-27-Copy-4" style="mix-blend-mode: multiply;"></path>
        </g>
    </g>
</svg>
